<svg width="842" height="461" viewBox="0 0 842 461" fill="none" xmlns="http://www.w3.org/2000/svg">
<path d="M113.226 240.281H86.2797C85.3322 240.281 84.4235 240.658 83.7535 241.329C83.0835 242 82.7071 242.91 82.7071 243.859V255.703C82.7071 256.652 83.0835 257.562 83.7535 258.233C84.4235 258.904 85.3322 259.281 86.2797 259.281H90.7451V277.028H108.761V259.281H113.226C114.174 259.281 115.083 258.904 115.753 258.233C116.423 257.562 116.799 256.652 116.799 255.703V243.859C116.799 242.91 116.423 242 115.753 241.329C115.083 240.658 114.174 240.281 113.226 240.281Z" fill="#6A9C6D"/>
<path d="M140.216 348.683C123.713 324.5 115.277 295.707 116.115 266.428C116.13 265.753 115.911 265.093 115.495 264.561C115.08 264.028 114.493 263.657 113.834 263.508V258.39H85.3751V263.437H84.983C84.5816 263.438 84.1846 263.521 83.8169 263.682C83.4491 263.843 83.1184 264.078 82.8455 264.373C82.5726 264.668 82.3633 265.016 82.2306 265.395C82.098 265.775 82.0449 266.177 82.0746 266.578C84.3167 297.877 76.7458 325.945 59.3619 350.782C58.3615 352.21 57.8505 353.923 57.9054 355.666L61.0173 452.064C61.0921 454.214 61.9932 456.252 63.5326 457.753C65.072 459.253 67.1307 460.101 69.2789 460.118H133.65C135.822 460.1 137.902 459.233 139.446 457.702C140.991 456.171 141.877 454.097 141.916 451.922L143.115 358.328C143.151 354.892 142.14 351.528 140.216 348.683V348.683Z" fill="#3F3D56"/>
<path opacity="0.2" d="M107.609 244.14C107.609 246.188 106.797 248.151 105.351 249.598C103.906 251.046 101.945 251.859 99.9012 251.859C97.857 251.859 95.8965 251.046 94.4511 249.598C93.0056 248.151 92.1935 246.188 92.1935 244.14" fill="black"/>
<path d="M130.026 380.703H122.232C121.487 375.868 119.04 371.458 115.331 368.273C111.622 365.087 106.898 363.336 102.012 363.336C97.1259 363.336 92.4013 365.087 88.6926 368.273C84.984 371.458 82.5362 375.868 81.792 380.703H73.9967C73.1673 380.703 72.3478 380.883 71.5942 381.23C70.8406 381.577 70.1709 382.083 69.6308 382.713C69.0908 383.344 68.6933 384.083 68.4655 384.882C68.2377 385.681 68.1851 386.519 68.3112 387.34L76.778 442.454H125.396L135.68 387.526C135.836 386.694 135.807 385.838 135.595 385.018C135.383 384.199 134.993 383.436 134.453 382.785C133.913 382.134 133.237 381.61 132.471 381.25C131.706 380.89 130.872 380.703 130.026 380.703Z" fill="#6A9C6D"/>
<path d="M785.063 292.116L783.193 366.955L780.877 459.758H702.059L699.345 351.028L697.874 292.116H785.063Z" fill="#E6E6E6"/>
<path d="M746.699 252.301H735.539V400.385H746.699V252.301Z" fill="#6A9C6D"/>
<path d="M779.482 348.507L777.371 454.876H705.53L703.056 330.253C709.529 328.432 716.306 327.966 722.967 328.883C729.627 329.801 736.027 332.082 741.768 335.585C753.772 342.694 767.256 346.521 779.482 348.507Z" fill="#3F3D56"/>
<path d="M723.315 360.481H713.074V370.736H723.315V360.481Z" fill="#E6E6E6"/>
<path d="M730.29 339.526H720.049V349.781H730.29V339.526Z" fill="#E6E6E6"/>
<path d="M752.279 354.033L744.054 347.924L737.954 356.161L746.179 362.27L752.279 354.033Z" fill="#E6E6E6"/>
<path d="M770.782 372.203L762.556 366.094L756.456 374.331L764.681 380.44L770.782 372.203Z" fill="#E6E6E6"/>
<path d="M739.394 382.681L731.168 376.572L725.068 384.809L733.293 390.918L739.394 382.681Z" fill="#E6E6E6"/>
<path d="M763.44 335.424C764.595 335.424 765.532 334.486 765.532 333.328C765.532 332.171 764.595 331.233 763.44 331.233C762.284 331.233 761.347 332.171 761.347 333.328C761.347 334.486 762.284 335.424 763.44 335.424Z" fill="#3F3D56"/>
<path d="M720.892 321.454C722.047 321.454 722.984 320.515 722.984 319.358C722.984 318.201 722.047 317.262 720.892 317.262C719.736 317.262 718.799 318.201 718.799 319.358C718.799 320.515 719.736 321.454 720.892 321.454Z" fill="#3F3D56"/>
<path d="M756.464 306.785C757.62 306.785 758.557 305.847 758.557 304.689C758.557 303.532 757.62 302.594 756.464 302.594C755.309 302.594 754.372 303.532 754.372 304.689C754.372 305.847 755.309 306.785 756.464 306.785Z" fill="#3F3D56"/>
<path d="M421.482 459.119C548.082 459.119 650.712 356.342 650.712 229.559C650.712 102.777 548.082 0 421.482 0C294.881 0 192.251 102.777 192.251 229.559C192.251 356.342 294.881 459.119 421.482 459.119Z" fill="#6A9C6D"/>
<path opacity="0.2" d="M421.482 397.116C382.773 397.115 345.261 383.674 315.338 359.082C285.416 334.49 264.934 300.268 257.382 262.248C249.831 224.228 255.677 184.762 273.924 150.575C292.172 116.388 321.692 89.5941 357.455 74.7596C393.217 59.9251 433.01 57.9675 470.052 69.2204C507.095 80.4733 539.095 104.24 560.601 136.472C582.106 168.704 591.787 207.406 587.992 245.984C584.198 284.562 567.164 320.629 539.793 348.04C524.292 363.648 505.854 376.022 485.546 384.445C465.238 392.869 443.463 397.176 421.482 397.116V397.116ZM421.482 72.3371C334.913 72.3371 264.484 142.867 264.484 229.559C264.484 316.252 334.913 386.782 421.482 386.782C508.05 386.782 578.479 316.252 578.479 229.559C578.479 142.867 508.05 72.3371 421.482 72.3371Z" fill="black"/>
<path d="M421.482 391.949C511.038 391.949 583.639 319.245 583.639 229.559C583.639 139.874 511.038 67.1702 421.482 67.1702C331.925 67.1702 259.325 139.874 259.325 229.559C259.325 319.245 331.925 391.949 421.482 391.949Z" fill="#3F3D56"/>
<path d="M300.889 164.627C299.66 162.215 298.917 159.584 298.703 156.884C298.489 154.184 298.809 151.468 299.644 148.892C300.479 146.316 301.812 143.931 303.569 141.871C305.325 139.812 307.469 138.119 309.879 136.89C312.289 135.661 314.917 134.92 317.613 134.709C320.31 134.497 323.021 134.821 325.592 135.659C328.164 136.498 330.545 137.836 332.599 139.597C334.654 141.358 336.342 143.507 337.567 145.922L383.38 236.015C384.61 238.427 385.353 241.058 385.567 243.758C385.78 246.457 385.461 249.173 384.626 251.749C383.791 254.325 382.457 256.711 380.701 258.77C378.945 260.83 376.8 262.522 374.39 263.751C371.98 264.98 369.352 265.722 366.656 265.933C363.96 266.144 361.249 265.821 358.677 264.982C356.106 264.143 353.725 262.805 351.67 261.044C349.615 259.283 347.927 257.134 346.703 254.719L300.889 164.627Z" fill="#FF6584"/>
<path opacity="0.2" d="M305.999 174.675L303.885 170.517C314.437 162.306 326.829 156.267 340.562 151.813L342.677 155.971C327.813 159.07 315.168 164.807 305.999 174.675Z" fill="black"/>
<path opacity="0.2" d="M315.867 194.08L313.752 189.922C324.305 181.711 336.697 175.672 350.43 171.217L352.544 175.375C337.681 178.475 325.035 184.211 315.867 194.08Z" fill="black"/>
<path opacity="0.2" d="M325.734 213.485L323.62 209.326C334.172 201.115 346.564 195.076 360.297 190.622L362.412 194.78C347.548 197.88 334.903 203.616 325.734 213.485Z" fill="black"/>
<path opacity="0.2" d="M335.602 232.889L333.487 228.731C344.04 220.52 356.432 214.481 370.165 210.026L372.279 214.184C357.416 217.284 344.77 223.02 335.602 232.889Z" fill="black"/>
<path opacity="0.2" d="M345.469 252.294L343.355 248.135C353.907 239.924 366.299 233.885 380.032 229.431L382.147 233.589C367.283 236.689 354.638 242.425 345.469 252.294Z" fill="black"/>
<path d="M266.519 198.354C265.289 195.942 264.547 193.311 264.333 190.611C264.12 187.912 264.439 185.196 265.274 182.621C266.109 180.045 267.443 177.659 269.199 175.6C270.956 173.541 273.1 171.848 275.51 170.619C277.919 169.39 280.547 168.649 283.243 168.438C285.939 168.227 288.65 168.55 291.222 169.388C293.793 170.227 296.174 171.565 298.229 173.325C300.283 175.086 301.971 177.235 303.196 179.649L349.01 269.742C351.48 274.612 351.918 280.265 350.229 285.458C348.539 290.652 344.86 294.961 340 297.44C335.14 299.919 329.495 300.364 324.307 298.677C319.12 296.991 314.812 293.311 312.332 288.447L266.519 198.354Z" fill="#FF6584"/>
<path opacity="0.2" d="M271.629 208.403L269.514 204.245C280.067 196.034 292.459 189.995 306.192 185.54L308.306 189.698C293.443 192.798 280.797 198.534 271.629 208.403Z" fill="black"/>
<path opacity="0.2" d="M281.496 227.807L279.382 223.649C289.934 215.438 302.326 209.399 316.059 204.945L318.174 209.103C303.31 212.202 290.665 217.939 281.496 227.807Z" fill="black"/>
<path opacity="0.2" d="M291.364 247.212L289.249 243.054C299.802 234.843 312.194 228.804 325.927 224.349L328.041 228.507C313.178 231.607 300.532 237.343 291.364 247.212Z" fill="black"/>
<path opacity="0.2" d="M301.231 266.616L299.117 262.458C309.669 254.247 322.061 248.208 335.794 243.754L337.909 247.912C323.045 251.012 310.4 256.748 301.231 266.616Z" fill="black"/>
<path opacity="0.2" d="M311.099 286.021L308.984 281.863C319.537 273.652 331.929 267.613 345.662 263.158L347.776 267.316C332.913 270.416 320.267 276.152 311.099 286.021Z" fill="black"/>
<path d="M529.832 234.726L529.977 234.727C534.911 234.768 539.744 233.319 543.844 230.569C547.944 227.819 551.121 223.895 552.96 219.309C556.744 209.732 558.651 199.514 558.577 189.214C558.319 145.619 522.903 109.855 479.374 109.252C460.836 108.992 442.778 115.16 428.263 126.709C413.747 138.259 403.666 154.481 399.728 172.624C395.791 190.767 398.24 209.715 406.659 226.257C415.079 242.798 428.951 255.915 445.925 263.384C450.41 265.373 455.391 265.958 460.215 265.062C465.038 264.166 469.478 261.832 472.954 258.365C480.408 250.861 489.271 244.909 499.033 240.852C508.795 236.795 519.263 234.713 529.832 234.726Z" fill="#E6E6E6"/>
<path d="M488.556 210.368C503.21 210.368 515.09 198.471 515.09 183.795C515.09 169.119 503.21 157.222 488.556 157.222C473.901 157.222 462.021 169.119 462.021 183.795C462.021 198.471 473.901 210.368 488.556 210.368Z" fill="#F9A825"/>
<path d="M430.886 180.807C432.613 180.807 434.012 179.406 434.012 177.677C434.012 175.948 432.613 174.546 430.886 174.546C429.16 174.546 427.76 175.948 427.76 177.677C427.76 179.406 429.16 180.807 430.886 180.807Z" fill="#3F3D56"/>
<path d="M327.695 183.76C329.422 183.76 330.821 182.358 330.821 180.629C330.821 178.9 329.422 177.499 327.695 177.499C325.969 177.499 324.57 178.9 324.57 180.629C324.57 182.358 325.969 183.76 327.695 183.76Z" fill="#3F3D56"/>
<path d="M447.546 148.365C449.272 148.365 450.672 146.963 450.672 145.234C450.672 143.506 449.272 142.104 447.546 142.104C445.819 142.104 444.42 143.506 444.42 145.234C444.42 146.963 445.819 148.365 447.546 148.365Z" fill="#3F3D56"/>
<path d="M447.457 238.595C449.183 238.595 450.583 237.193 450.583 235.464C450.583 233.736 449.183 232.334 447.457 232.334C445.731 232.334 444.331 233.736 444.331 235.464C444.331 237.193 445.731 238.595 447.457 238.595Z" fill="#3F3D56"/>
<path d="M509.371 141.899C511.098 141.899 512.497 140.498 512.497 138.769C512.497 137.04 511.098 135.639 509.371 135.639C507.645 135.639 506.246 137.04 506.246 138.769C506.246 140.498 507.645 141.899 509.371 141.899Z" fill="#3F3D56"/>
<path d="M307.413 227.523C309.139 227.523 310.538 226.121 310.538 224.393C310.538 222.664 309.139 221.262 307.413 221.262C305.686 221.262 304.287 222.664 304.287 224.393C304.287 226.121 305.686 227.523 307.413 227.523Z" fill="#3F3D56"/>
<path d="M330.262 272.549C331.988 272.549 333.388 271.148 333.388 269.419C333.388 267.69 331.988 266.288 330.262 266.288C328.536 266.288 327.136 267.69 327.136 269.419C327.136 271.148 328.536 272.549 330.262 272.549Z" fill="#3F3D56"/>
<path d="M473.814 287.134C480.327 287.134 485.607 281.846 485.607 275.324C485.607 268.801 480.327 263.514 473.814 263.514C467.301 263.514 462.021 268.801 462.021 275.324C462.021 281.846 467.301 287.134 473.814 287.134Z" fill="#FF6584"/>
<path opacity="0.2" d="M482.659 276.062C482.659 278.411 481.727 280.664 480.068 282.325C478.41 283.986 476.16 284.919 473.814 284.919C471.468 284.919 469.219 283.986 467.56 282.325C465.901 280.664 464.969 278.411 464.969 276.062" fill="black"/>
<path opacity="0.2" d="M464.969 274.586C464.969 272.236 465.901 269.983 467.56 268.322C469.219 266.661 471.468 265.728 473.814 265.728C476.16 265.728 478.41 266.661 480.068 268.322C481.727 269.983 482.659 272.236 482.659 274.586" fill="black"/>
<path d="M469.392 272.371C469.799 272.371 470.129 271.875 470.129 271.264C470.129 270.652 469.799 270.157 469.392 270.157C468.985 270.157 468.655 270.652 468.655 271.264C468.655 271.875 468.985 272.371 469.392 272.371Z" fill="#FF6584"/>
<path d="M473.814 270.895C474.221 270.895 474.551 270.399 474.551 269.788C474.551 269.176 474.221 268.681 473.814 268.681C473.407 268.681 473.077 269.176 473.077 269.788C473.077 270.399 473.407 270.895 473.814 270.895Z" fill="#FF6584"/>
<path d="M473.814 280.491C474.221 280.491 474.551 279.995 474.551 279.383C474.551 278.772 474.221 278.276 473.814 278.276C473.407 278.276 473.077 278.772 473.077 279.383C473.077 279.995 473.407 280.491 473.814 280.491Z" fill="#FF6584"/>
<path d="M478.237 274.586C478.644 274.586 478.974 274.09 478.974 273.478C478.974 272.867 478.644 272.371 478.237 272.371C477.83 272.371 477.5 272.867 477.5 273.478C477.5 274.09 477.83 274.586 478.237 274.586Z" fill="#FF6584"/>
<path d="M477.5 282.705C477.907 282.705 478.237 282.209 478.237 281.598C478.237 280.986 477.907 280.491 477.5 280.491C477.093 280.491 476.763 280.986 476.763 281.598C476.763 282.209 477.093 282.705 477.5 282.705Z" fill="#FF6584"/>
<path d="M468.655 279.014C469.062 279.014 469.392 278.519 469.392 277.907C469.392 277.296 469.062 276.8 468.655 276.8C468.248 276.8 467.918 277.296 467.918 277.907C467.918 278.519 468.248 279.014 468.655 279.014Z" fill="#FF6584"/>
<path d="M497.401 255.394C503.914 255.394 509.194 250.107 509.194 243.584C509.194 237.062 503.914 231.774 497.401 231.774C490.887 231.774 485.607 237.062 485.607 243.584C485.607 250.107 490.887 255.394 497.401 255.394Z" fill="#FF6584"/>
<path opacity="0.2" d="M506.246 244.322C506.246 246.671 505.314 248.924 503.655 250.585C501.996 252.247 499.746 253.18 497.401 253.18C495.055 253.18 492.805 252.247 491.146 250.585C489.488 248.924 488.556 246.671 488.556 244.322" fill="black"/>
<path opacity="0.2" d="M488.556 242.846C488.556 240.497 489.488 238.244 491.146 236.583C492.805 234.921 495.055 233.988 497.401 233.988C499.746 233.988 501.996 234.921 503.655 236.583C505.314 238.244 506.246 240.497 506.246 242.846" fill="black"/>
<path d="M492.978 240.632C493.385 240.632 493.715 240.136 493.715 239.524C493.715 238.913 493.385 238.417 492.978 238.417C492.571 238.417 492.241 238.913 492.241 239.524C492.241 240.136 492.571 240.632 492.978 240.632Z" fill="#FF6584"/>
<path d="M497.401 239.155C497.808 239.155 498.138 238.659 498.138 238.048C498.138 237.437 497.808 236.941 497.401 236.941C496.994 236.941 496.664 237.437 496.664 238.048C496.664 238.659 496.994 239.155 497.401 239.155Z" fill="#FF6584"/>
<path d="M497.401 248.751C497.808 248.751 498.138 248.255 498.138 247.644C498.138 247.032 497.808 246.536 497.401 246.536C496.994 246.536 496.664 247.032 496.664 247.644C496.664 248.255 496.994 248.751 497.401 248.751Z" fill="#FF6584"/>
<path d="M501.823 242.846C502.23 242.846 502.56 242.35 502.56 241.739C502.56 241.127 502.23 240.631 501.823 240.631C501.416 240.631 501.086 241.127 501.086 241.739C501.086 242.35 501.416 242.846 501.823 242.846Z" fill="#FF6584"/>
<path d="M501.086 250.965C501.493 250.965 501.823 250.47 501.823 249.858C501.823 249.247 501.493 248.751 501.086 248.751C500.679 248.751 500.349 249.247 500.349 249.858C500.349 250.47 500.679 250.965 501.086 250.965Z" fill="#FF6584"/>
<path d="M492.241 247.275C492.648 247.275 492.978 246.779 492.978 246.168C492.978 245.556 492.648 245.06 492.241 245.06C491.834 245.06 491.504 245.556 491.504 246.168C491.504 246.779 491.834 247.275 492.241 247.275Z" fill="#FF6584"/>
<path d="M520.987 271.633C527.5 271.633 532.78 266.346 532.78 259.823C532.78 253.3 527.5 248.013 520.987 248.013C514.474 248.013 509.194 253.3 509.194 259.823C509.194 266.346 514.474 271.633 520.987 271.633Z" fill="#6A9C6D"/>
<path opacity="0.2" d="M529.832 260.561C529.832 262.91 528.9 265.163 527.241 266.824C525.583 268.485 523.333 269.419 520.987 269.419C518.641 269.419 516.392 268.485 514.733 266.824C513.074 265.163 512.142 262.91 512.142 260.561" fill="black"/>
<path opacity="0.2" d="M512.142 259.085C512.142 256.736 513.074 254.483 514.733 252.821C516.392 251.16 518.641 250.227 520.987 250.227C523.333 250.227 525.583 251.16 527.241 252.821C528.9 254.483 529.832 256.736 529.832 259.085" fill="black"/>
<path d="M516.565 256.87C516.972 256.87 517.302 256.375 517.302 255.763C517.302 255.152 516.972 254.656 516.565 254.656C516.158 254.656 515.828 255.152 515.828 255.763C515.828 256.375 516.158 256.87 516.565 256.87Z" fill="#6A9C6D"/>
<path d="M520.987 255.394C521.394 255.394 521.724 254.898 521.724 254.287C521.724 253.675 521.394 253.18 520.987 253.18C520.58 253.18 520.25 253.675 520.25 254.287C520.25 254.898 520.58 255.394 520.987 255.394Z" fill="#6A9C6D"/>
<path d="M520.987 264.99C521.394 264.99 521.724 264.494 521.724 263.883C521.724 263.271 521.394 262.775 520.987 262.775C520.58 262.775 520.25 263.271 520.25 263.883C520.25 264.494 520.58 264.99 520.987 264.99Z" fill="#6A9C6D"/>
<path d="M525.409 259.085C525.817 259.085 526.147 258.589 526.147 257.978C526.147 257.366 525.817 256.87 525.409 256.87C525.002 256.87 524.672 257.366 524.672 257.978C524.672 258.589 525.002 259.085 525.409 259.085Z" fill="#6A9C6D"/>
<path d="M524.672 267.204C525.08 267.204 525.41 266.709 525.41 266.097C525.41 265.486 525.08 264.99 524.672 264.99C524.265 264.99 523.935 265.486 523.935 266.097C523.935 266.709 524.265 267.204 524.672 267.204Z" fill="#6A9C6D"/>
<path d="M515.828 263.514C516.235 263.514 516.565 263.018 516.565 262.406C516.565 261.795 516.235 261.299 515.828 261.299C515.42 261.299 515.09 261.795 515.09 262.406C515.09 263.018 515.42 263.514 515.828 263.514Z" fill="#6A9C6D"/>
<path d="M462.021 273.109C468.534 273.109 473.814 267.822 473.814 261.299C473.814 254.777 468.534 249.489 462.021 249.489C455.508 249.489 450.228 254.777 450.228 261.299C450.228 267.822 455.508 273.109 462.021 273.109Z" fill="#6A9C6D"/>
<path opacity="0.2" d="M470.866 262.037C470.866 264.387 469.934 266.64 468.275 268.301C466.617 269.962 464.367 270.895 462.021 270.895C459.675 270.895 457.425 269.962 455.767 268.301C454.108 266.64 453.176 264.387 453.176 262.037" fill="black"/>
<path opacity="0.2" d="M453.176 260.561C453.176 258.212 454.108 255.959 455.767 254.298C457.425 252.637 459.675 251.703 462.021 251.703C464.367 251.703 466.617 252.637 468.275 254.298C469.934 255.959 470.866 258.212 470.866 260.561" fill="black"/>
<path d="M457.598 258.347C458.006 258.347 458.336 257.851 458.336 257.24C458.336 256.628 458.006 256.132 457.598 256.132C457.191 256.132 456.861 256.628 456.861 257.24C456.861 257.851 457.191 258.347 457.598 258.347Z" fill="#6A9C6D"/>
<path d="M462.021 256.87C462.428 256.87 462.758 256.375 462.758 255.763C462.758 255.152 462.428 254.656 462.021 254.656C461.614 254.656 461.284 255.152 461.284 255.763C461.284 256.375 461.614 256.87 462.021 256.87Z" fill="#6A9C6D"/>
<path d="M462.021 266.466C462.428 266.466 462.758 265.97 462.758 265.359C462.758 264.747 462.428 264.252 462.021 264.252C461.614 264.252 461.284 264.747 461.284 265.359C461.284 265.97 461.614 266.466 462.021 266.466Z" fill="#6A9C6D"/>
<path d="M466.443 260.561C466.85 260.561 467.18 260.065 467.18 259.454C467.18 258.842 466.85 258.347 466.443 258.347C466.036 258.347 465.706 258.842 465.706 259.454C465.706 260.065 466.036 260.561 466.443 260.561Z" fill="#6A9C6D"/>
<path d="M465.706 268.68C466.113 268.68 466.443 268.185 466.443 267.573C466.443 266.962 466.113 266.466 465.706 266.466C465.299 266.466 464.969 266.962 464.969 267.573C464.969 268.185 465.299 268.68 465.706 268.68Z" fill="#6A9C6D"/>
<path d="M456.861 264.99C457.269 264.99 457.599 264.494 457.599 263.883C457.599 263.271 457.269 262.775 456.861 262.775C456.454 262.775 456.124 263.271 456.124 263.883C456.124 264.494 456.454 264.99 456.861 264.99Z" fill="#6A9C6D"/>
<path d="M488.556 278.276C495.069 278.276 500.349 272.989 500.349 266.466C500.349 259.944 495.069 254.656 488.556 254.656C482.042 254.656 476.762 259.944 476.762 266.466C476.762 272.989 482.042 278.276 488.556 278.276Z" fill="#6A9C6D"/>
<path opacity="0.2" d="M497.401 267.204C497.401 268.368 497.172 269.519 496.727 270.594C496.283 271.669 495.631 272.645 494.81 273.468C493.989 274.29 493.014 274.943 491.941 275.388C490.867 275.833 489.717 276.062 488.556 276.062C487.394 276.062 486.244 275.833 485.171 275.388C484.098 274.943 483.123 274.29 482.301 273.468C481.48 272.645 480.829 271.669 480.384 270.594C479.94 269.519 479.711 268.368 479.711 267.204" fill="black"/>
<path opacity="0.2" d="M479.711 265.728C479.711 264.565 479.94 263.413 480.384 262.338C480.829 261.264 481.48 260.287 482.301 259.465C483.123 258.642 484.098 257.99 485.171 257.545C486.244 257.099 487.394 256.87 488.556 256.87C489.717 256.87 490.867 257.099 491.941 257.545C493.014 257.99 493.989 258.642 494.81 259.465C495.631 260.287 496.283 261.264 496.727 262.338C497.172 263.413 497.401 264.565 497.401 265.728" fill="black"/>
<path d="M484.133 263.514C484.54 263.514 484.87 263.018 484.87 262.406C484.87 261.795 484.54 261.299 484.133 261.299C483.726 261.299 483.396 261.795 483.396 262.406C483.396 263.018 483.726 263.514 484.133 263.514Z" fill="#6A9C6D"/>
<path d="M488.556 262.037C488.963 262.037 489.293 261.542 489.293 260.93C489.293 260.319 488.963 259.823 488.556 259.823C488.149 259.823 487.819 260.319 487.819 260.93C487.819 261.542 488.149 262.037 488.556 262.037Z" fill="#6A9C6D"/>
<path d="M488.556 271.633C488.963 271.633 489.293 271.137 489.293 270.526C489.293 269.914 488.963 269.419 488.556 269.419C488.149 269.419 487.819 269.914 487.819 270.526C487.819 271.137 488.149 271.633 488.556 271.633Z" fill="#6A9C6D"/>
<path d="M492.978 265.728C493.385 265.728 493.715 265.232 493.715 264.621C493.715 264.009 493.385 263.514 492.978 263.514C492.571 263.514 492.241 264.009 492.241 264.621C492.241 265.232 492.571 265.728 492.978 265.728Z" fill="#6A9C6D"/>
<path d="M492.241 273.847C492.648 273.847 492.978 273.352 492.978 272.74C492.978 272.129 492.648 271.633 492.241 271.633C491.834 271.633 491.504 272.129 491.504 272.74C491.504 273.352 491.834 273.847 492.241 273.847Z" fill="#6A9C6D"/>
<path d="M483.396 270.157C483.803 270.157 484.133 269.661 484.133 269.05C484.133 268.438 483.803 267.942 483.396 267.942C482.989 267.942 482.659 268.438 482.659 269.05C482.659 269.661 482.989 270.157 483.396 270.157Z" fill="#6A9C6D"/>
<path d="M506.983 290.825C513.496 290.825 518.776 285.537 518.776 279.014C518.776 272.492 513.496 267.204 506.983 267.204C500.469 267.204 495.189 272.492 495.189 279.014C495.189 285.537 500.469 290.825 506.983 290.825Z" fill="#FF6584"/>
<path opacity="0.2" d="M515.828 279.753C515.828 282.102 514.896 284.355 513.237 286.016C511.578 287.677 509.328 288.61 506.983 288.61C504.637 288.61 502.387 287.677 500.728 286.016C499.07 284.355 498.138 282.102 498.138 279.753" fill="black"/>
<path opacity="0.2" d="M498.138 278.276C498.138 275.927 499.07 273.674 500.728 272.013C502.387 270.352 504.637 269.419 506.983 269.419C509.328 269.419 511.578 270.352 513.237 272.013C514.896 273.674 515.828 275.927 515.828 278.276" fill="black"/>
<path d="M502.56 276.062C502.967 276.062 503.297 275.566 503.297 274.955C503.297 274.343 502.967 273.847 502.56 273.847C502.153 273.847 501.823 274.343 501.823 274.955C501.823 275.566 502.153 276.062 502.56 276.062Z" fill="#FF6584"/>
<path d="M506.983 274.586C507.39 274.586 507.72 274.09 507.72 273.478C507.72 272.867 507.39 272.371 506.983 272.371C506.576 272.371 506.246 272.867 506.246 273.478C506.246 274.09 506.576 274.586 506.983 274.586Z" fill="#FF6584"/>
<path d="M506.983 284.181C507.39 284.181 507.72 283.686 507.72 283.074C507.72 282.463 507.39 281.967 506.983 281.967C506.576 281.967 506.246 282.463 506.246 283.074C506.246 283.686 506.576 284.181 506.983 284.181Z" fill="#FF6584"/>
<path d="M511.405 278.276C511.812 278.276 512.142 277.781 512.142 277.169C512.142 276.558 511.812 276.062 511.405 276.062C510.998 276.062 510.668 276.558 510.668 277.169C510.668 277.781 510.998 278.276 511.405 278.276Z" fill="#FF6584"/>
<path d="M510.668 286.396C511.075 286.396 511.405 285.9 511.405 285.289C511.405 284.677 511.075 284.181 510.668 284.181C510.261 284.181 509.931 284.677 509.931 285.289C509.931 285.9 510.261 286.396 510.668 286.396Z" fill="#FF6584"/>
<path d="M501.823 282.705C502.23 282.705 502.56 282.209 502.56 281.598C502.56 280.986 502.23 280.491 501.823 280.491C501.416 280.491 501.086 280.986 501.086 281.598C501.086 282.209 501.416 282.705 501.823 282.705Z" fill="#FF6584"/>
<path d="M355.322 237.119C357.049 237.119 358.448 235.717 358.448 233.988C358.448 232.259 357.049 230.858 355.322 230.858C353.596 230.858 352.197 232.259 352.197 233.988C352.197 235.717 353.596 237.119 355.322 237.119Z" fill="#3F3D56"/>
<path d="M440.291 347.614L365.217 326.765L368.093 316.067L443.167 336.917L440.291 347.614Z" fill="#F9A825"/>
<path d="M429.285 344.039C403.577 348.968 377.168 348.968 351.46 344.039V332.95C377.226 337.226 403.519 337.226 429.285 332.95V344.039Z" fill="#F9A825"/>
<path d="M437.286 310.771C411.578 315.7 385.169 315.7 359.46 310.771V299.682C385.227 303.959 411.52 303.959 437.286 299.682V310.771Z" fill="#F9A825"/>
<path d="M464.198 324.079C438.489 329.007 412.081 329.007 386.372 324.079V312.989C412.138 317.266 438.432 317.266 464.198 312.989V324.079Z" fill="#F9A825"/>
<path d="M470.744 336.646C445.036 341.575 418.627 341.575 392.918 336.646V325.557C418.684 329.834 444.978 329.834 470.744 325.557V336.646Z" fill="#F9A825"/>
<path d="M493.567 353.069L416.784 365.984L415.004 355.044L491.785 342.128L493.567 353.069Z" fill="#F9A825"/>
<path d="M482.097 354.49C460.81 369.857 436.818 381.063 411.38 387.52L406.825 377.444C432.039 370.373 455.928 359.216 477.542 344.414L482.097 354.49Z" fill="#F9A825"/>
<path d="M475.7 320.866C454.413 336.233 430.421 347.439 404.984 353.896L400.428 343.819C425.643 336.749 449.531 325.591 471.145 310.79L475.7 320.866Z" fill="#F9A825"/>
<path d="M505.62 321.536C484.333 336.903 460.341 348.109 434.904 354.566L430.348 344.489C455.563 337.419 479.451 326.261 501.065 311.46L505.62 321.536Z" fill="#F9A825"/>
<path d="M516.732 330.177C495.444 345.544 471.452 356.75 446.015 363.207L441.459 353.131C466.674 346.06 490.562 334.903 512.176 320.101L516.732 330.177Z" fill="#F9A825"/>
<path d="M423.693 308.54H420.008V312.23H423.693V308.54Z" fill="#00BF71"/>
<path d="M434.749 372.757H431.064V376.448H434.749V372.757Z" fill="#00BF71"/>
<path d="M375.783 308.54H372.098V312.23H375.783V308.54Z" fill="#00BF71"/>
<path d="M461.284 354.304H457.599V357.995H461.284V354.304Z" fill="#00BF71"/>
<path d="M463.495 332.898H459.81V336.589H463.495V332.898Z" fill="#00BF71"/>
<path d="M402.7 322.793L398.431 319.892L396.776 322.335L401.045 325.236L402.7 322.793Z" fill="#00BF71"/>
<path d="M446.188 330.913L441.918 328.012L440.263 330.455L444.533 333.356L446.188 330.913Z" fill="#00BF71"/>
<path d="M393.118 344.937L388.849 342.036L387.194 344.479L391.463 347.38L393.118 344.937Z" fill="#00BF71"/>
<path d="M420.148 344.722L423.044 340.447L420.605 338.789L417.708 343.065L420.148 344.722Z" fill="#00BF71"/>
<path d="M440.049 349.889L442.945 345.614L440.506 343.956L437.609 348.232L440.049 349.889Z" fill="#00BF71"/>
<path d="M493.123 332.173L496.02 327.897L493.58 326.24L490.684 330.515L493.123 332.173Z" fill="#00BF71"/>
<path d="M842 458.872H0V461H842V458.872Z" fill="#3F3D56"/>
</svg>
