<svg width="38" height="41" viewBox="0 0 38 41" fill="none" xmlns="http://www.w3.org/2000/svg">
<path d="M29.2865 29.3591C28.1761 32.1958 26.111 34.5056 23.4498 35.9295C20.6515 37.3808 17.5051 37.753 14.4386 36.9026C8.42597 35.2351 4.64065 29.272 5.58931 23.0494C2.24214 20.8764 5.45227 13.9707 5.55349 13.6057L6.02067 12.6216L7.09903 15.7376C7.6843 14.3277 8.84445 12.9461 11.0986 12.523C11.0986 12.523 11.0986 12.523 11.1587 12.5397C11.1946 12.8772 11.3339 13.3089 11.5501 13.6965C11.5501 13.6965 23.658 20.0023 27.5702 18.2702C27.5702 18.2702 28.0321 18.0053 28.4076 17.5853C30.0332 18.4947 32.5278 18.1383 32.5278 18.1383C31.9066 19.2108 31.0428 19.7574 30.1093 20.0881C30.4311 21.029 30.3584 21.9915 30.1391 22.7824C30.1655 22.9207 30.175 23.1199 30.2014 23.2582L33.7558 20.2477L33.6494 21.3319C33.4881 21.6802 32.7051 28.4729 29.2865 29.3591ZM32.4365 22.4368L29.3008 25.1048L29.2891 24.4465C29.1446 24.734 29.0508 24.839 29.0508 24.839C27.231 22.762 26.6834 21.2344 26.6527 20.1777C24.8151 19.7991 23.2761 19.0447 23.2761 19.0447C23.9682 20.2849 25.4039 20.945 25.4039 20.945C22.0095 21.5105 18.8825 16.9091 18.8825 16.9091C18.7951 18.3917 20.1465 19.356 20.1465 19.356C16.253 17.7522 14.0746 16.0343 13.2043 15.2034C12.7635 16.3259 11.4588 17.9949 7.78505 19.3345L7.56357 19.6662L7.49393 19.4503C7.20281 19.5661 6.92857 19.6211 6.63745 19.7369C6.63745 19.7369 6.50336 18.586 6.75426 17.2143L5.99773 15.0392C5.65815 15.7966 5.3281 16.7533 5.1183 17.7433C4.78304 19.4192 4.69046 21.6209 6.15252 22.4194L6.51328 22.5195C5.23759 28.5203 8.84254 34.4335 14.6147 36.0342C17.4406 36.8179 20.373 36.5174 22.9571 35.1377C25.5244 33.8188 27.5125 31.5532 28.4689 28.8048L28.5364 28.5615L28.8107 28.5065C30.3022 28.2651 31.2798 26.3743 31.7785 24.8093C32.1518 23.9301 32.311 23.1226 32.4365 22.4368ZM22.9443 23.2765C22.2227 23.0764 21.3853 23.7613 21.0985 24.7955C20.8117 25.8296 21.1768 26.8481 21.8983 27.0482C22.6198 27.2482 23.4573 26.5633 23.7441 25.5292C24.0309 24.495 23.6658 23.4766 22.9443 23.2765ZM14.5867 20.9587C13.8652 20.7586 13.0277 21.4436 12.7409 22.4777C12.4541 23.5119 12.8192 24.5303 13.5407 24.7304C14.2622 24.9305 15.0997 24.2456 15.3865 23.2114C15.6733 22.1772 15.3082 21.1588 14.5867 20.9587ZM19.0451 27.7637L18.2033 27.5302C18.0177 28.1994 17.3248 28.5968 16.6634 28.4134C16.002 28.23 15.6127 27.5324 15.7983 26.8632L14.9565 26.6298C14.6359 27.7856 15.2848 28.9482 16.4272 29.2651C17.5696 29.5819 18.7245 28.9195 19.0451 27.7637ZM16.1901 31.7543C21.3951 36.8009 21.1581 30.184 21.1581 30.184C19.8578 32.7714 16.1901 31.7543 16.1901 31.7543Z" fill="#6A9C6D"/>
<path d="M12.6192 10.2368C12.3051 9.9542 16.8068 9.05213 20.375 6.32718C20.375 6.32718 24.4507 2.24412 27.478 5.951C30.4613 9.58052 31.5323 13.2662 30.0866 14.2338C30.0866 14.2338 29.9747 16.2881 27.9137 16.1727C25.8694 15.9968 15.6656 13.167 12.6192 10.2368Z" fill="#6A9C6D"/>
</svg>
