<svg width="29" height="28" viewBox="0 0 29 28" fill="none" xmlns="http://www.w3.org/2000/svg">
<path fill-rule="evenodd" clip-rule="evenodd" d="M8.68962 25.7928L8.41349 18.748L11.5405 18.6212C12.8763 18.8078 14.2286 19.4845 15.588 20.276L18.0164 20.178C19.1186 20.2019 19.7393 21.3067 18.6985 22.091C17.8725 22.7582 16.7467 22.7678 15.5903 22.708C14.795 22.7008 14.8021 23.7841 15.6305 23.753C15.9184 23.765 16.2299 23.6837 16.5013 23.6717C17.9386 23.6119 19.1115 23.2867 19.7912 22.1054L20.1216 21.2302L23.664 19.2693C25.4482 18.5925 26.6494 20.2976 25.3703 21.6845C22.8285 23.7195 20.367 25.5752 17.6719 26.9669C15.7272 28.275 13.7306 28.3157 11.6916 27.2085L8.68962 25.7928ZM7.01872 15.0582H28.7074C28.8678 15.0582 29 15.1945 29 15.3547V16.6484C29 16.8086 28.8678 16.9449 28.7074 16.9449H7.01872C6.85824 16.9449 6.72607 16.811 6.72607 16.6484V15.3547C6.72607 15.1921 6.85824 15.0582 7.01872 15.0582ZM18.7056 2.68546C24.6434 3.16611 29.6443 8.22376 28.9056 14.1782H6.82284C6.09359 8.1855 11.1134 3.12068 17.0937 2.67828V1.7074H16.1497C15.9845 1.7074 15.8476 1.56871 15.8476 1.40132V0.306089C15.8476 0.138697 15.9821 0 16.1497 0H19.6236C19.7888 0 19.9257 0.138697 19.9257 0.306089V1.40132C19.9257 1.56871 19.7888 1.7074 19.6236 1.7074H18.7056V2.68546ZM0 18.5064L7.44588 18.1095L7.77629 26.5389L0.330404 26.9335L0 18.5064Z" fill="#F9F9F9"/>
</svg>
